<?xml version="1.0" encoding="utf-8"?>
<!-- Generator: Adobe Illustrator 19.0.0, SVG Export Plug-In . SVG Version: 6.00 Build 0)  -->
<svg version="1.1" id="Layer_1" xmlns="http://www.w3.org/2000/svg" xmlns:xlink="http://www.w3.org/1999/xlink" x="0px" y="0px"
	 viewBox="0 0 214.7 214.7" style="enable-background:new 0 0 214.7 214.7;" xml:space="preserve">
<style type="text/css">
	.st0{fill:#FFC200;stroke:#000000;stroke-width:5;stroke-linecap:round;stroke-linejoin:round;stroke-miterlimit:10;}
	.st1{fill:none;stroke:#000000;stroke-width:5;stroke-linecap:round;stroke-linejoin:round;stroke-miterlimit:10;}
	.st2{opacity:0.5;}
	.st3{fill:#FFC200;}
</style>
<g id="XMLID_54_">
	<path id="XMLID_51_" d="M108.3,10c53.7,0,97.3,43.7,97.3,97.3c0,53.7-43.7,97.3-97.3,97.3C54.7,204.7,11,161,11,107.3
		C11,53.7,54.7,10,108.3,10 M108.3,0C49.1,0,1,48.1,1,107.3c0,59.3,48.1,107.3,107.3,107.3c59.3,0,107.3-48.1,107.3-107.3
		C215.7,48.1,167.6,0,108.3,0L108.3,0z"/>
</g>
<g id="XMLID_33_">
	<g id="XMLID_19_">
		<circle id="XMLID_53_" class="st0" cx="148.3" cy="107.3" r="28"/>
		<g id="XMLID_31_">
			<path id="XMLID_50_" class="st1" d="M153.2,96.8h-3.6c-5.9,0-10.7,5.1-10.7,11c0,5.9,4.9,11,10.8,11h3.5"/>
			<line id="XMLID_49_" class="st1" x1="147.7" y1="96.3" x2="147.7" y2="90.3"/>
			<line id="XMLID_45_" class="st1" x1="147.7" y1="125.3" x2="147.7" y2="120.3"/>
		</g>
	</g>
	<g id="XMLID_32_">
		<g id="XMLID_15_">
			<g id="XMLID_72_" class="st2">
				<circle id="XMLID_74_" cx="113.3" cy="107.3" r="28"/>
				<circle id="XMLID_73_" class="st1" cx="113.3" cy="107.3" r="28"/>
			</g>
			<g id="XMLID_69_">
				<circle id="XMLID_71_" class="st3" cx="108.3" cy="107.3" r="28"/>
				<circle id="XMLID_70_" class="st1" cx="108.3" cy="107.3" r="28"/>
			</g>
		</g>
		<g id="XMLID_13_">
			<path id="XMLID_37_" class="st0" d="M113.2,96.8h-3.6c-5.9,0-10.7,5.1-10.7,11c0,5.9,4.9,11,10.8,11h3.5"/>
			<line id="XMLID_30_" class="st0" x1="107.7" y1="96.3" x2="107.7" y2="90.3"/>
			<line id="XMLID_14_" class="st0" x1="107.7" y1="125.3" x2="107.7" y2="120.3"/>
		</g>
	</g>
	<g id="XMLID_9_">
		<g id="XMLID_60_">
			<g id="XMLID_68_" class="st2">
				<circle id="XMLID_76_" cx="73.3" cy="107.3" r="28"/>
				<circle id="XMLID_75_" class="st1" cx="73.3" cy="107.3" r="28"/>
			</g>
			<g id="XMLID_65_">
				<circle id="XMLID_67_" class="st3" cx="68.3" cy="107.3" r="28"/>
				<circle id="XMLID_66_" class="st1" cx="68.3" cy="107.3" r="28"/>
			</g>
		</g>
		<g id="XMLID_56_">
			<path id="XMLID_59_" class="st0" d="M73.2,96.8h-3.6c-5.9,0-10.7,5.1-10.7,11c0,5.9,4.9,11,10.8,11h3.5"/>
			<line id="XMLID_58_" class="st0" x1="67.7" y1="96.3" x2="67.7" y2="90.3"/>
			<line id="XMLID_57_" class="st0" x1="67.7" y1="125.3" x2="67.7" y2="120.3"/>
		</g>
	</g>
</g>
</svg>
