<?xml version="1.0" encoding="utf-8"?>
<!-- Generator: Adobe Illustrator 19.0.0, SVG Export Plug-In . SVG Version: 6.00 Build 0)  -->
<svg version="1.1" id="Layer_1" xmlns="http://www.w3.org/2000/svg" xmlns:xlink="http://www.w3.org/1999/xlink" x="0px" y="0px"
	 viewBox="0 0 214.7 214.7" style="enable-background:new 0 0 214.7 214.7;" xml:space="preserve">
<style type="text/css">
	.st0{fill:#6BE555;stroke:#000000;stroke-width:5;stroke-linecap:round;stroke-linejoin:round;stroke-miterlimit:10;}
	.st1{fill:#FFFFFF;}
	.st2{fill:none;stroke:#000000;stroke-width:5;stroke-linecap:round;stroke-linejoin:round;stroke-miterlimit:10;}
	.st3{fill:none;stroke:#000000;stroke-width:5;stroke-linejoin:round;stroke-miterlimit:10;}
	.st4{opacity:0.5;}
	.st5{fill:#6BE555;}
</style>
<g id="XMLID_112_">
	<path id="XMLID_46_" d="M107.3,10c53.7,0,97.3,43.7,97.3,97.3s-43.7,97.3-97.3,97.3C53.7,204.7,10,161,10,107.3S53.7,10,107.3,10
		 M107.3,0C48.1,0,0,48.1,0,107.3s48.1,107.3,107.3,107.3c59.3,0,107.3-48.1,107.3-107.3S166.6,0,107.3,0L107.3,0z"/>
</g>
<g id="XMLID_146_">
	<g id="XMLID_32_">
		<path id="XMLID_128_" class="st0" d="M92.6,153.5l28.7-107.2c0.4-1.7,2.1-2.6,3.8-2.2l49.3,13.2c1.7,0.4,2.6,2.1,2.2,3.8
			l-28.7,107.2c-0.4,1.7-2.1,2.6-3.8,2.2l-49.3-13.2C93.1,156.9,92.1,155.2,92.6,153.5z"/>
		<path id="XMLID_126_" class="st1" d="M159.4,97.7l-8,29.9c0,0-12.7,8.3-23.3,4.5s-18.1-11.4-17.3-17.9l6.9-25.8
			c0,0,6.7-9.8,23.8-6.6C141.5,81.9,156.1,85.6,159.4,97.7z"/>
		<g id="XMLID_120_">
			<g id="XMLID_123_">
				<path id="XMLID_125_" class="st2" d="M134.6,108.2l0.6-2.3c0.6-2.3,3-3.6,5.2-3l0,0c2.3,0.6,3.6,3,3,5.2l-1.7,6.4"/>
				<path id="XMLID_124_" class="st2" d="M135.2,106l-0.6,2.3c-0.6,2.3-3,3.6-5.2,3h0c-2.3-0.6-3.6-3-3-5.2l1.7-6.4"/>
			</g>
			<line id="XMLID_122_" class="st2" x1="148.5" y1="110.3" x2="144.1" y2="109.1"/>
			<line id="XMLID_121_" class="st2" x1="126.6" y1="104.4" x2="122.2" y2="103.2"/>
		</g>
		<g id="XMLID_116_">
			<path id="XMLID_119_" class="st2" d="M130.2,159c1.6-6.1,8.5-10.1,15.5-8.2l20.2-75.5c-7-1.9-10.8-9.2-9.1-15.3l-17.5-4.7
				c-1.6,6.1-7.5,10.7-14.6,8.8l-20.3,75.6c7,1.9,9.9,8.5,8.2,14.6L130.2,159z"/>
		</g>
		<g id="XMLID_113_">
			<path id="XMLID_115_" class="st3" d="M110.2,115.8c2.8,7.7,9.2,14,17.7,16.3c8.7,2.3,17.5,0,23.8-5.5"/>
			<path id="XMLID_114_" class="st3" d="M159.1,98.2c-2.8-7.7-9.2-14-17.7-16.3c-8.5-2.3-17.2,0-23.5,5.3"/>
		</g>
	</g>
	<g id="XMLID_33_">
		<g id="XMLID_111_">
			<g id="XMLID_64_" class="st4">
				<path id="XMLID_66_" d="M83.7,167.8v-111c0-1.7,1.4-3.1,3.1-3.1h51c1.7,0,3.1,1.4,3.1,3.1v111c0,1.7-1.4,3.1-3.1,3.1h-51
					C85.1,170.9,83.7,169.5,83.7,167.8z"/>
				<path id="XMLID_65_" class="st2" d="M83.7,167.8v-111c0-1.7,1.4-3.1,3.1-3.1h51c1.7,0,3.1,1.4,3.1,3.1v111
					c0,1.7-1.4,3.1-3.1,3.1h-51C85.1,170.9,83.7,169.5,83.7,167.8z"/>
			</g>
			<g id="XMLID_61_">
				<path id="XMLID_63_" class="st5" d="M78.7,162.8v-111c0-1.7,1.4-3.1,3.1-3.1h51c1.7,0,3.1,1.4,3.1,3.1v111
					c0,1.7-1.4,3.1-3.1,3.1h-51C80.1,165.9,78.7,164.5,78.7,162.8z"/>
				<path id="XMLID_62_" class="st2" d="M78.7,162.8v-111c0-1.7,1.4-3.1,3.1-3.1h51c1.7,0,3.1,1.4,3.1,3.1v111
					c0,1.7-1.4,3.1-3.1,3.1h-51C80.1,165.9,78.7,164.5,78.7,162.8z"/>
			</g>
		</g>
		<path id="XMLID_110_" class="st1" d="M129.2,91.7v31c0,0-10.3,11.2-21.5,10.4c-11.3-0.8-20.5-6.3-21.5-12.8V93.5
			c0,0,4.1-11.2,21.4-12.5C107.6,81,122.2,80.8,129.2,91.7z"/>
		<g id="XMLID_49_">
			<g id="XMLID_55_">
				<path id="XMLID_60_" class="st2" d="M107.6,108.2v-2.4c0-2.4,1.9-4.3,4.3-4.3h0c2.4,0,4.3,1.9,4.3,4.3v6.7"/>
				<path id="XMLID_59_" class="st2" d="M107.6,105.8v2.4c0,2.4-1.9,4.3-4.3,4.3h0c-2.4,0-4.3-1.9-4.3-4.3v-6.7"/>
			</g>
			<line id="XMLID_54_" class="st2" x1="122.2" y1="106.8" x2="117.2" y2="106.8"/>
			<line id="XMLID_51_" class="st2" x1="99.2" y1="106.8" x2="94.2" y2="106.8"/>
		</g>
		<g id="XMLID_47_">
			<path id="XMLID_48_" class="st2" d="M116.4,158.8c0-7,6.2-12.5,13.2-12.5V68.2c-7,0-13.2-5.3-13.2-12.3H98.4
				c0,7-4.7,12.2-11.7,12.2v78.3c7,0,11.7,5.5,11.7,12.5H116.4z"/>
		</g>
		<g id="XMLID_34_">
			<path id="XMLID_40_" class="st3" d="M86,121.8c4.7,6.8,12.5,11.2,21.4,11.2c9,0,16.9-4.5,21.6-11.5"/>
			<path id="XMLID_39_" class="st3" d="M128.7,92.2C124,85.4,116.2,81,107.3,81c-8.8,0-16.7,4.4-21.4,11.2"/>
		</g>
	</g>
	<g id="XMLID_129_">
		<g id="XMLID_145_">
			<g id="XMLID_68_" class="st4">
				<path id="XMLID_70_" d="M71.8,173.3L43.1,66.1c-0.4-1.7,0.5-3.3,2.2-3.8l49.3-13.2c1.7-0.4,3.3,0.5,3.8,2.2l28.7,107.2
					c0.4,1.7-0.5,3.3-2.2,3.8l-49.3,13.2C74,176,72.3,175,71.8,173.3z"/>
				<path id="XMLID_69_" class="st2" d="M71.8,173.3L43.1,66.1c-0.4-1.7,0.5-3.3,2.2-3.8l49.3-13.2c1.7-0.4,3.3,0.5,3.8,2.2
					l28.7,107.2c0.4,1.7-0.5,3.3-2.2,3.8l-49.3,13.2C74,176,72.3,175,71.8,173.3z"/>
			</g>
			<g id="XMLID_56_">
				<path id="XMLID_67_" class="st5" d="M66.8,168.3L38.1,61.1c-0.4-1.7,0.5-3.3,2.2-3.8l49.3-13.2c1.7-0.4,3.3,0.5,3.8,2.2
					l28.7,107.2c0.4,1.7-0.5,3.3-2.2,3.8l-49.3,13.2C69,171,67.3,170,66.8,168.3z"/>
				<path id="XMLID_57_" class="st2" d="M66.8,168.3L38.1,61.1c-0.4-1.7,0.5-3.3,2.2-3.8l49.3-13.2c1.7-0.4,3.3,0.5,3.8,2.2
					l28.7,107.2c0.4,1.7-0.5,3.3-2.2,3.8l-49.3,13.2C69,171,67.3,170,66.8,168.3z"/>
			</g>
		</g>
		<path id="XMLID_144_" class="st1" d="M96.8,86.6l8,29.9c0,0-6.8,13.5-17.9,15.6s-21.3-0.8-23.9-6.8L56,99.5
			c0,0,0.9-11.9,17.3-17.6C73.4,81.9,87.8,77.8,96.8,86.6z"/>
		<g id="XMLID_138_">
			<g id="XMLID_141_">
				<path id="XMLID_143_" class="st2" d="M80.6,108.1l-0.6-2.3c-0.6-2.3,0.8-4.6,3-5.2l0,0c2.3-0.6,4.6,0.8,5.2,3L90,110"/>
				<path id="XMLID_142_" class="st2" d="M80,105.8l0.6,2.3c0.6,2.3-0.8,4.6-3,5.2l0,0c-2.3,0.6-4.6-0.8-5.2-3l-1.7-6.4"/>
			</g>
			<line id="XMLID_140_" class="st2" x1="93.6" y1="102.9" x2="89.3" y2="104.1"/>
			<line id="XMLID_139_" class="st2" x1="71.7" y1="108.8" x2="67.3" y2="110"/>
		</g>
		<g id="XMLID_136_">
			<path id="XMLID_137_" class="st2" d="M102.1,154.2c-1.6-6.1,2.3-13,9.3-14.9L91.2,63.8c-7,1.9-13.9-2.6-15.6-8.7l-17.5,4.7
				c1.6,6.1-1.2,13.1-8.2,14.9l20.3,75.6c7-1.9,12.8,2.4,14.4,8.5L102.1,154.2z"/>
		</g>
		<g id="XMLID_130_">
			<path id="XMLID_135_" class="st3" d="M63.2,126.9c6.3,5.3,15,7.6,23.5,5.3c8.7-2.3,15.1-8.8,17.9-16.7"/>
			<path id="XMLID_134_" class="st3" d="M96.8,87.2c-6.3-5.3-15-7.6-23.5-5.3c-8.5,2.3-15,8.6-17.7,16.3"/>
		</g>
	</g>
</g>
</svg>
