<?xml version="1.0" encoding="utf-8"?>
<!-- Generator: Adobe Illustrator 19.0.0, SVG Export Plug-In . SVG Version: 6.00 Build 0)  -->
<svg version="1.1" id="Layer_1" xmlns="http://www.w3.org/2000/svg" xmlns:xlink="http://www.w3.org/1999/xlink" x="0px" y="0px"
	 viewBox="0 0 214.7 214.7" style="enable-background:new 0 0 214.7 214.7;" xml:space="preserve">
<style type="text/css">
	.st0{fill:#6BE555;stroke:#000000;stroke-width:5;stroke-linecap:round;stroke-linejoin:round;stroke-miterlimit:10;}
	.st1{fill:#FFFFFF;}
	.st2{fill:none;stroke:#000000;stroke-width:5;stroke-linecap:round;stroke-linejoin:round;stroke-miterlimit:10;}
	.st3{fill:none;stroke:#000000;stroke-width:5;stroke-linejoin:round;stroke-miterlimit:10;}
	.st4{fill:#F7931E;stroke:#000000;stroke-width:5;stroke-linecap:round;stroke-linejoin:round;stroke-miterlimit:10;}
	.st5{fill:#FFFFFF;stroke:#000000;stroke-width:5;stroke-linecap:round;stroke-linejoin:round;stroke-miterlimit:10;}
</style>
<g id="XMLID_148_">
	<path id="XMLID_37_" d="M107.3,10c53.7,0,97.3,43.7,97.3,97.3s-43.7,97.3-97.3,97.3C53.7,204.7,10,161,10,107.3S53.7,10,107.3,10
		 M107.3,0C48.1,0,0,48.1,0,107.3s48.1,107.3,107.3,107.3c59.3,0,107.3-48.1,107.3-107.3S166.6,0,107.3,0L107.3,0z"/>
</g>
<g id="XMLID_199_">
	<path id="XMLID_198_" class="st0" d="M28.7,114.5v27.1l121.8,0c1.8,0,4.1-1,5.1-2.2l30.3-37.6V75.6"/>
	<path id="XMLID_197_" class="st0" d="M185.4,96l-29.7,36.9c-1,1.2-3.3,2.2-5.1,2.2l-119.9,0"/>
	<path id="XMLID_196_" class="st0" d="M185.4,89.5l-29.7,36.9c-1,1.2-3.3,2.2-5.1,2.2l-119.9,0"/>
	<path id="XMLID_195_" class="st0" d="M185.4,83L155.7,120c-1,1.2-3.3,2.2-5.1,2.2l-119.9,0"/>
	<g id="XMLID_181_">
		<path id="XMLID_194_" class="st0" d="M150.5,115.7l-119.9,0c-1.8,0-2.5-1-1.5-2.2l29.7-36.9c1-1.2,3.3-2.2,5.1-2.2l119.9,0
			c1.8,0,2.5,1,1.5,2.2l-29.7,36.9C154.7,114.7,152.4,115.7,150.5,115.7z"/>
		<path id="XMLID_193_" class="st1" d="M102.6,79.7l33.4,0c0,0,6.3,7.3-1.2,15.5c-7.5,8.2-18.8,15-26.2,15.4l-28.9,0
			c0,0-9.8-2.9-1.1-15.4C78.6,95.2,87.3,84.2,102.6,79.7z"/>
		<g id="XMLID_187_">
			<g id="XMLID_190_">
				<path id="XMLID_192_" class="st2" d="M108.3,94.8l-2.6,0c-2.5,0-3.5-1.4-2.1-3.1l0,0c1.4-1.7,4.6-3.1,7.1-3.1l7.2,0"/>
				<path id="XMLID_191_" class="st2" d="M105.8,94.8l2.6,0c2.5,0,3.5,1.4,2.1,3.1l0,0c-1.4,1.7-4.6,3.1-7.1,3.1l-7.2,0"/>
			</g>
			<line id="XMLID_189_" class="st2" x1="114.6" y1="85.1" x2="112.1" y2="88.2"/>
			<line id="XMLID_188_" class="st2" x1="101.3" y1="101.7" x2="98.8" y2="104.8"/>
		</g>
		<g id="XMLID_185_">
			<path id="XMLID_186_" class="st2" d="M167.5,88.4c-7.4,0-9.6-4-5.6-8.9l-84.5,0c-4,4.9-13.5,8.9-20.9,8.9L46,101.5
				c7.4,0,10.4,4,6.4,8.9l84.6,0c4-4.9,12.6-8.9,19.9-8.9L167.5,88.4z"/>
		</g>
		<g id="XMLID_182_">
			<path id="XMLID_184_" class="st3" d="M110.5,110.5c10-3.4,19.4-9.1,24.5-15.5c5.2-6.5,4.9-12.2,0.2-15.6"/>
			<path id="XMLID_183_" class="st3" d="M103.3,79.5C93.3,82.9,84,88.6,78.8,95c-5.1,6.4-4.9,12.1-0.4,15.5"/>
		</g>
	</g>
	<g id="XMLID_163_">
		<polygon id="XMLID_180_" class="st4" points="108.7,143.8 69.7,143.8 69.7,115.6 106.6,70.8 146.1,70.8 108.7,115.7 108.7,143.8 
					"/>
		<polygon id="XMLID_179_" class="st5" points="98.7,143.8 79.7,143.8 79.7,115.6 116.9,70.8 135.7,70.8 98.7,115.7 98.7,143.8 		
			"/>
		<line id="XMLID_178_" class="st2" x1="98" y1="104.4" x2="115.3" y2="83.8"/>
	</g>
</g>
</svg>
