<?xml version="1.0" encoding="utf-8"?>
<!-- Generator: Adobe Illustrator 19.0.0, SVG Export Plug-In . SVG Version: 6.00 Build 0)  -->
<svg version="1.1" id="Layer_1" xmlns="http://www.w3.org/2000/svg" xmlns:xlink="http://www.w3.org/1999/xlink" x="0px" y="0px"
	 viewBox="0 0 214.7 214.7" style="enable-background:new 0 0 214.7 214.7;" xml:space="preserve">
<style type="text/css">
	.st0{fill:#6BE555;stroke:#000000;stroke-width:5;stroke-linecap:round;stroke-linejoin:round;stroke-miterlimit:10;}
	.st1{fill:#FFFFFF;}
	.st2{fill:none;stroke:#000000;stroke-width:5;stroke-linecap:round;stroke-linejoin:round;stroke-miterlimit:10;}
	.st3{fill:none;stroke:#000000;stroke-width:5;stroke-linejoin:round;stroke-miterlimit:10;}
	.st4{fill:#F7931E;stroke:#000000;stroke-width:5;stroke-linecap:round;stroke-linejoin:round;stroke-miterlimit:10;}
	.st5{fill:#FFFFFF;stroke:#000000;stroke-width:5;stroke-linecap:round;stroke-linejoin:round;stroke-miterlimit:10;}
</style>
<g id="XMLID_204_">
	<path id="XMLID_37_" d="M107.3,10c53.7,0,97.3,43.7,97.3,97.3s-43.7,97.3-97.3,97.3C53.7,204.7,10,161,10,107.3S53.7,10,107.3,10
		 M107.3,0C48.1,0,0,48.1,0,107.3s48.1,107.3,107.3,107.3c59.3,0,107.3-48.1,107.3-107.3S166.6,0,107.3,0L107.3,0z"/>
</g>
<g id="XMLID_203_">
	<path id="XMLID_232_" class="st0" d="M40.9,83.4v83l102.9,0c1.6,0,3.5-0.8,4.3-1.9l25.6-31.7V50.6"/>
	<path id="XMLID_231_" class="st0" d="M173.3,117l-25.1,31.2c-0.8,1-2.8,1.9-4.3,1.9l-101.3,0"/>
	<path id="XMLID_230_" class="st0" d="M173.3,100.6l-25.1,31.2c-0.8,1-2.8,1.9-4.3,1.9l-101.3,0"/>
	<path id="XMLID_229_" class="st0" d="M173.3,84.2l-25.1,31.2c-0.8,1-2.8,1.9-4.3,1.9l-101.3,0"/>
	<path id="XMLID_228_" class="st0" d="M173.3,67.8L148.2,99c-0.8,1-2.8,1.9-4.3,1.9l-101.3,0"/>
	<g id="XMLID_210_">
		<path id="XMLID_227_" class="st0" d="M143.8,84.5l-101.3,0c-1.6,0-2.1-0.8-1.3-1.9l25.1-31.2c0.8-1,2.8-1.9,4.3-1.9l101.3,0
			c1.6,0,2.1,0.8,1.3,1.9l-25.1,31.2C147.3,83.6,145.4,84.5,143.8,84.5z"/>
		<path id="XMLID_226_" class="st1" d="M103.3,54l28.2,0c0,0,5.3,6.2-1,13.1s-15.9,12.7-22.2,13l-24.4,0c0,0-8.3-2.4-0.9-13
			C83.1,67.1,90.4,57.8,103.3,54z"/>
		<g id="XMLID_216_">
			<g id="XMLID_220_">
				<path id="XMLID_225_" class="st2" d="M108.2,66.8l-2.2,0c-2.2,0-3-1.2-1.8-2.6l0,0c1.2-1.4,3.9-2.6,6-2.6l6.1,0"/>
				<path id="XMLID_224_" class="st2" d="M106,66.8l2.2,0c2.2,0,3,1.2,1.8,2.6l0,0c-1.2,1.4-3.9,2.6-6,2.6l-6.1,0"/>
			</g>
			<line id="XMLID_219_" class="st2" x1="113.5" y1="58.6" x2="111.4" y2="61.2"/>
			<line id="XMLID_218_" class="st2" x1="102.2" y1="72.6" x2="100.1" y2="75.2"/>
		</g>
		<g id="XMLID_214_">
			<path id="XMLID_215_" class="st2" d="M158.2,61.4c-6.2,0-8.1-3.4-4.7-7.5l-71.4,0c-3.3,4.2-11.4,7.5-17.7,7.5l-8.9,11.1
				c6.2,0,8.8,3.4,5.4,7.5l71.5,0c3.3-4.2,10.6-7.5,16.8-7.5L158.2,61.4z"/>
		</g>
		<g id="XMLID_211_">
			<path id="XMLID_213_" class="st3" d="M110,80c8.5-2.9,16.4-7.6,20.7-13.1c4.4-5.5,4.2-10.3,0.1-13.2"/>
			<path id="XMLID_212_" class="st3" d="M103.9,53.9c-8.5,2.9-16.3,7.6-20.7,13.1c-4.4,5.4-4.2,10.2-0.3,13.1"/>
		</g>
	</g>
	<g id="XMLID_206_">
		<polygon id="XMLID_209_" class="st4" points="108.7,168.8 75.7,168.8 75.7,84.4 106.7,45.8 140.1,45.8 108.7,84.5 108.7,168.8 		
			"/>
		<polygon id="XMLID_208_" class="st5" points="100.7,168.8 84.7,168.8 84.7,84.4 115.5,45.8 131.3,45.8 100.7,84.5 100.7,168.8 		
			"/>
		<line id="XMLID_207_" class="st2" x1="99.5" y1="74.9" x2="114" y2="57.5"/>
	</g>
	<line id="XMLID_205_" class="st0" x1="146.7" y1="84.3" x2="146.7" y2="165.3"/>
</g>
</svg>
