<?xml version="1.0" encoding="utf-8"?>
<!-- Generator: Adobe Illustrator 19.0.0, SVG Export Plug-In . SVG Version: 6.00 Build 0)  -->
<svg version="1.1" id="Layer_1" xmlns="http://www.w3.org/2000/svg" xmlns:xlink="http://www.w3.org/1999/xlink" x="0px" y="0px"
	 viewBox="0 0 214.7 214.7" style="enable-background:new 0 0 214.7 214.7;" xml:space="preserve">
<style type="text/css">
	.st0{fill:#FF9900;}
	.st1{fill:none;stroke:#000000;stroke-width:5;stroke-linecap:round;stroke-linejoin:round;stroke-miterlimit:10;}
</style>
<g id="XMLID_35_">
	<g id="XMLID_278_">
		<path id="XMLID_50_" d="M107.3,10c53.7,0,97.3,43.7,97.3,97.3s-43.7,97.3-97.3,97.3C53.7,204.7,10,161,10,107.3S53.7,10,107.3,10
			 M107.3,0C48.1,0,0,48.1,0,107.3s48.1,107.3,107.3,107.3c59.3,0,107.3-48.1,107.3-107.3S166.6,0,107.3,0L107.3,0z"/>
	</g>
</g>
<g id="XMLID_271_">
	<g id="XMLID_13_">
		<circle id="XMLID_38_" class="st0" cx="107.3" cy="107.3" r="40.7"/>
		<circle id="XMLID_37_" class="st1" cx="107.3" cy="107.3" r="40.7"/>
	</g>
	<g id="XMLID_30_">
		<path id="XMLID_36_" class="st1" d="M92.5,123.5l12.7,3.4c6.1,1.6,12.2-1.1,13.7-6.5c1.5-5.5-2.4-10.8-8.5-12.5L99.7,105
			c0,0,8.5,2.3,8.5,2.3c6.1,1.6,12.1-1.1,13.6-6.6c1.5-5.5-2.5-10.8-8.6-12.5l-10.6-2.8L92.5,123.5z"/>
		<g id="XMLID_107_">
			<g id="XMLID_42_">
				<line id="XMLID_41_" class="st1" x1="119.9" y1="83" x2="118.6" y2="87.8"/>
				<line id="XMLID_45_" class="st1" x1="106.2" y1="134.2" x2="107.5" y2="129.4"/>
			</g>
			<g id="XMLID_9_">
				<line id="XMLID_57_" class="st1" x1="110.4" y1="80.5" x2="109.1" y2="85.3"/>
				<line id="XMLID_56_" class="st1" x1="96.7" y1="131.6" x2="98" y2="126.9"/>
			</g>
		</g>
	</g>
</g>
</svg>
