<?xml version="1.0" encoding="utf-8"?>
<!-- Generator: Adobe Illustrator 19.0.0, SVG Export Plug-In . SVG Version: 6.00 Build 0)  -->
<svg version="1.1" id="Layer_1" xmlns="http://www.w3.org/2000/svg" xmlns:xlink="http://www.w3.org/1999/xlink" x="0px" y="0px"
	 viewBox="0 0 214.7 214.7" style="enable-background:new 0 0 214.7 214.7;" xml:space="preserve">
<style type="text/css">
	.st0{fill:#FF9900;}
	.st1{fill:none;stroke:#000000;stroke-width:5;stroke-linecap:round;stroke-linejoin:round;stroke-miterlimit:10;}
	.st2{opacity:0.5;}
</style>
<g id="XMLID_307_">
	<g id="XMLID_308_">
		<path id="XMLID_42_" d="M107.3,10c53.7,0,97.3,43.7,97.3,97.3s-43.7,97.3-97.3,97.3C53.7,204.7,10,161,10,107.3S53.7,10,107.3,10
			 M107.3,0C48.1,0,0,48.1,0,107.3s48.1,107.3,107.3,107.3c59.3,0,107.3-48.1,107.3-107.3S166.6,0,107.3,0L107.3,0z"/>
	</g>
</g>
<g id="XMLID_311_">
	<g id="XMLID_319_">
		<g id="XMLID_336_">
			<circle id="XMLID_33_" class="st0" cx="147.3" cy="107.3" r="31.2"/>
			<circle id="XMLID_32_" class="st1" cx="147.3" cy="107.3" r="31.2"/>
		</g>
		<g id="XMLID_320_">
			<path id="XMLID_335_" class="st1" d="M136,119.7l9.7,2.6c4.7,1.3,9.3-0.8,10.5-5c1.1-4.2-1.8-8.3-6.5-9.6l-8.1-2.2
				c0,0,6.6,1.8,6.6,1.8c4.7,1.3,9.3-0.8,10.4-5s-1.9-8.3-6.6-9.6l-8.1-2.2L136,119.7z"/>
			<g id="XMLID_321_">
				<g id="XMLID_332_">
					<line id="XMLID_334_" class="st1" x1="157" y1="88.7" x2="156" y2="92.4"/>
					<line id="XMLID_333_" class="st1" x1="146.5" y1="127.9" x2="147.4" y2="124.3"/>
				</g>
				<g id="XMLID_322_">
					<line id="XMLID_325_" class="st1" x1="149.7" y1="86.8" x2="148.7" y2="90.4"/>
					<line id="XMLID_323_" class="st1" x1="139.2" y1="125.9" x2="140.2" y2="122.3"/>
				</g>
			</g>
		</g>
	</g>
	<g id="XMLID_280_">
		<g id="XMLID_301_">
			<g id="XMLID_51_" class="st2">
				<circle id="XMLID_53_" cx="112.3" cy="107.3" r="31.2"/>
				<circle id="XMLID_52_" class="st1" cx="112.3" cy="107.3" r="31.2"/>
			</g>
			<g id="XMLID_48_">
				<circle id="XMLID_50_" class="st0" cx="107.3" cy="107.3" r="31.2"/>
				<circle id="XMLID_49_" class="st1" cx="107.3" cy="107.3" r="31.2"/>
			</g>
		</g>
		<g id="XMLID_287_">
			<path id="XMLID_300_" class="st1" d="M96,119.7l9.7,2.6c4.7,1.3,9.3-0.8,10.5-5s-1.8-8.3-6.5-9.6l-8.1-2.2c0,0,6.6,1.8,6.6,1.8
				c4.7,1.3,9.3-0.8,10.4-5c1.1-4.2-1.9-8.3-6.6-9.6l-8.1-2.2L96,119.7z"/>
			<g id="XMLID_288_">
				<g id="XMLID_297_">
					<line id="XMLID_299_" class="st1" x1="117" y1="88.7" x2="116" y2="92.4"/>
					<line id="XMLID_298_" class="st1" x1="106.5" y1="127.9" x2="107.4" y2="124.3"/>
				</g>
				<g id="XMLID_289_">
					<line id="XMLID_295_" class="st1" x1="109.7" y1="86.8" x2="108.7" y2="90.4"/>
					<line id="XMLID_290_" class="st1" x1="99.2" y1="125.9" x2="100.2" y2="122.3"/>
				</g>
			</g>
		</g>
	</g>
	<g id="XMLID_272_">
		<g id="XMLID_318_">
			<g id="XMLID_58_" class="st2">
				<circle id="XMLID_60_" cx="72.3" cy="107.3" r="31.2"/>
				<circle id="XMLID_59_" class="st1" cx="72.3" cy="107.3" r="31.2"/>
			</g>
			<g id="XMLID_54_">
				<circle id="XMLID_57_" class="st0" cx="67.3" cy="107.3" r="31.2"/>
				<circle id="XMLID_55_" class="st1" cx="67.3" cy="107.3" r="31.2"/>
			</g>
		</g>
		<g id="XMLID_302_">
			<path id="XMLID_317_" class="st1" d="M56,119.7l9.7,2.6c4.7,1.3,9.3-0.8,10.5-5s-1.8-8.3-6.5-9.6l-8.1-2.2c0,0,6.6,1.8,6.6,1.8
				c4.7,1.3,9.3-0.8,10.4-5c1.1-4.2-1.9-8.3-6.6-9.6l-8.1-2.2L56,119.7z"/>
			<g id="XMLID_305_">
				<g id="XMLID_314_">
					<line id="XMLID_316_" class="st1" x1="77" y1="88.7" x2="76" y2="92.4"/>
					<line id="XMLID_315_" class="st1" x1="66.5" y1="127.9" x2="67.4" y2="124.3"/>
				</g>
				<g id="XMLID_306_">
					<line id="XMLID_310_" class="st1" x1="69.7" y1="86.8" x2="68.7" y2="90.4"/>
					<line id="XMLID_309_" class="st1" x1="59.2" y1="125.9" x2="60.2" y2="122.3"/>
				</g>
			</g>
		</g>
	</g>
</g>
</svg>
