<?xml version="1.0" encoding="utf-8"?>
<!-- Generator: Adobe Illustrator 19.0.0, SVG Export Plug-In . SVG Version: 6.00 Build 0)  -->
<svg version="1.1" id="Layer_1" xmlns="http://www.w3.org/2000/svg" xmlns:xlink="http://www.w3.org/1999/xlink" x="0px" y="0px"
	 viewBox="0 0 214.7 214.7" style="enable-background:new 0 0 214.7 214.7;" xml:space="preserve">
<style type="text/css">
	.st0{fill:#FF9900;}
	.st1{fill:none;stroke:#000000;stroke-width:5;stroke-linecap:round;stroke-linejoin:round;stroke-miterlimit:10;}
	.st2{opacity:0.5;}
</style>
<g id="XMLID_401_">
	<g id="XMLID_402_">
		<path id="XMLID_46_" d="M107.3,10c53.7,0,97.3,43.7,97.3,97.3s-43.7,97.3-97.3,97.3C53.7,204.7,10,161,10,107.3S53.7,10,107.3,10
			 M107.3,0C48.1,0,0,48.1,0,107.3s48.1,107.3,107.3,107.3c59.3,0,107.3-48.1,107.3-107.3S166.6,0,107.3,0L107.3,0z"/>
	</g>
</g>
<g id="XMLID_313_">
	<g id="XMLID_387_">
		<g id="XMLID_397_">
			<circle id="XMLID_33_" class="st0" cx="147.3" cy="107.3" r="31.2"/>
			<circle id="XMLID_32_" class="st1" cx="147.3" cy="107.3" r="31.2"/>
		</g>
		<g id="XMLID_388_">
			<path id="XMLID_396_" class="st1" d="M136,119.7l9.7,2.6c4.7,1.3,9.3-0.8,10.5-5c1.1-4.2-1.8-8.3-6.5-9.6l-8.1-2.2
				c0,0,6.6,1.8,6.6,1.8c4.7,1.3,9.3-0.8,10.4-5s-1.9-8.3-6.6-9.6l-8.1-2.2L136,119.7z"/>
			<g id="XMLID_389_">
				<g id="XMLID_393_">
					<line id="XMLID_395_" class="st1" x1="157" y1="88.7" x2="156" y2="92.4"/>
					<line id="XMLID_394_" class="st1" x1="146.5" y1="127.9" x2="147.4" y2="124.3"/>
				</g>
				<g id="XMLID_390_">
					<line id="XMLID_392_" class="st1" x1="149.7" y1="86.8" x2="148.7" y2="90.4"/>
					<line id="XMLID_391_" class="st1" x1="139.2" y1="125.9" x2="140.2" y2="122.3"/>
				</g>
			</g>
		</g>
	</g>
	<g id="XMLID_383_">
		<g id="XMLID_407_">
			<g id="XMLID_65_" class="st2">
				<circle id="XMLID_67_" cx="112.3" cy="147.3" r="31.2"/>
				<circle id="XMLID_66_" class="st1" cx="112.3" cy="147.3" r="31.2"/>
			</g>
			<g id="XMLID_62_">
				<circle id="XMLID_64_" class="st0" cx="107.3" cy="147.3" r="31.2"/>
				<circle id="XMLID_63_" class="st1" cx="107.3" cy="147.3" r="31.2"/>
			</g>
		</g>
		<g id="XMLID_384_">
			<path id="XMLID_406_" class="st1" d="M96,159.7l9.7,2.6c4.7,1.3,9.3-0.8,10.5-5s-1.8-8.3-6.5-9.6l-8.1-2.2c0,0,6.6,1.8,6.6,1.8
				c4.7,1.3,9.3-0.8,10.4-5c1.1-4.2-1.9-8.3-6.6-9.6l-8.1-2.2L96,159.7z"/>
			<g id="XMLID_385_">
				<g id="XMLID_400_">
					<line id="XMLID_404_" class="st1" x1="117" y1="128.7" x2="116" y2="132.4"/>
					<line id="XMLID_403_" class="st1" x1="106.5" y1="167.9" x2="107.4" y2="164.3"/>
				</g>
				<g id="XMLID_386_">
					<line id="XMLID_399_" class="st1" x1="109.7" y1="126.8" x2="108.7" y2="130.4"/>
					<line id="XMLID_398_" class="st1" x1="99.2" y1="165.9" x2="100.2" y2="162.3"/>
				</g>
			</g>
		</g>
	</g>
	<g id="XMLID_312_">
		<g id="XMLID_382_">
			<g id="XMLID_58_" class="st2">
				<circle id="XMLID_60_" cx="112.3" cy="67.3" r="31.2"/>
				<circle id="XMLID_59_" class="st1" cx="112.3" cy="67.3" r="31.2"/>
			</g>
			<g id="XMLID_55_">
				<circle id="XMLID_57_" class="st0" cx="107.3" cy="67.3" r="31.2"/>
				<circle id="XMLID_56_" class="st1" cx="107.3" cy="67.3" r="31.2"/>
			</g>
		</g>
		<g id="XMLID_362_">
			<path id="XMLID_381_" class="st1" d="M96,79.7l9.7,2.6c4.7,1.3,9.3-0.8,10.5-5s-1.8-8.3-6.5-9.6l-8.1-2.2c0,0,6.6,1.8,6.6,1.8
				c4.7,1.3,9.3-0.8,10.4-5c1.1-4.2-1.9-8.3-6.6-9.6l-8.1-2.2L96,79.7z"/>
			<g id="XMLID_363_">
				<g id="XMLID_367_">
					<line id="XMLID_380_" class="st1" x1="117" y1="48.7" x2="116" y2="52.4"/>
					<line id="XMLID_368_" class="st1" x1="106.5" y1="87.9" x2="107.4" y2="84.3"/>
				</g>
				<g id="XMLID_364_">
					<line id="XMLID_366_" class="st1" x1="109.7" y1="46.8" x2="108.7" y2="50.4"/>
					<line id="XMLID_365_" class="st1" x1="99.2" y1="85.9" x2="100.2" y2="82.3"/>
				</g>
			</g>
		</g>
	</g>
	<g id="XMLID_324_">
		<g id="XMLID_349_">
			<g id="XMLID_52_" class="st2">
				<circle id="XMLID_61_" cx="72.3" cy="107.3" r="31.2"/>
				<circle id="XMLID_53_" class="st1" cx="72.3" cy="107.3" r="31.2"/>
			</g>
			<g id="XMLID_49_">
				<circle id="XMLID_51_" class="st0" cx="67.3" cy="107.3" r="31.2"/>
				<circle id="XMLID_50_" class="st1" cx="67.3" cy="107.3" r="31.2"/>
			</g>
		</g>
		<g id="XMLID_326_">
			<path id="XMLID_348_" class="st1" d="M56,119.7l9.7,2.6c4.7,1.3,9.3-0.8,10.5-5s-1.8-8.3-6.5-9.6l-8.1-2.2c0,0,6.6,1.8,6.6,1.8
				c4.7,1.3,9.3-0.8,10.4-5c1.1-4.2-1.9-8.3-6.6-9.6l-8.1-2.2L56,119.7z"/>
			<g id="XMLID_327_">
				<g id="XMLID_340_">
					<line id="XMLID_344_" class="st1" x1="77" y1="88.7" x2="76" y2="92.4"/>
					<line id="XMLID_343_" class="st1" x1="66.5" y1="127.9" x2="67.4" y2="124.3"/>
				</g>
				<g id="XMLID_328_">
					<line id="XMLID_338_" class="st1" x1="69.7" y1="86.8" x2="68.7" y2="90.4"/>
					<line id="XMLID_337_" class="st1" x1="59.2" y1="125.9" x2="60.2" y2="122.3"/>
				</g>
			</g>
		</g>
	</g>
	<g id="XMLID_369_">
		<g id="XMLID_379_">
			<g id="XMLID_72_" class="st2">
				<circle id="XMLID_74_" cx="112.3" cy="107.3" r="31.2"/>
				<circle id="XMLID_73_" class="st1" cx="112.3" cy="107.3" r="31.2"/>
			</g>
			<g id="XMLID_68_">
				<circle id="XMLID_71_" class="st0" cx="107.3" cy="107.3" r="31.2"/>
				<circle id="XMLID_69_" class="st1" cx="107.3" cy="107.3" r="31.2"/>
			</g>
		</g>
		<g id="XMLID_370_">
			<path id="XMLID_378_" class="st1" d="M96,119.7l9.7,2.6c4.7,1.3,9.3-0.8,10.5-5s-1.8-8.3-6.5-9.6l-8.1-2.2c0,0,6.6,1.8,6.6,1.8
				c4.7,1.3,9.3-0.8,10.4-5c1.1-4.2-1.9-8.3-6.6-9.6l-8.1-2.2L96,119.7z"/>
			<g id="XMLID_371_">
				<g id="XMLID_375_">
					<line id="XMLID_377_" class="st1" x1="117" y1="88.7" x2="116" y2="92.4"/>
					<line id="XMLID_376_" class="st1" x1="106.5" y1="127.9" x2="107.4" y2="124.3"/>
				</g>
				<g id="XMLID_372_">
					<line id="XMLID_374_" class="st1" x1="109.7" y1="86.8" x2="108.7" y2="90.4"/>
					<line id="XMLID_373_" class="st1" x1="99.2" y1="125.9" x2="100.2" y2="122.3"/>
				</g>
			</g>
		</g>
	</g>
</g>
</svg>
