<?xml version="1.0" encoding="utf-8"?>
<!-- Generator: Adobe Illustrator 19.0.0, SVG Export Plug-In . SVG Version: 6.00 Build 0)  -->
<svg version="1.1" id="Layer_1" xmlns="http://www.w3.org/2000/svg" xmlns:xlink="http://www.w3.org/1999/xlink" x="0px" y="0px"
	 viewBox="0 0 214.7 214.7" style="enable-background:new 0 0 214.7 214.7;" xml:space="preserve">
<style type="text/css">
	.st0{fill:#FF9900;}
	.st1{fill:none;stroke:#000000;stroke-width:5;stroke-linecap:round;stroke-linejoin:round;stroke-miterlimit:10;}
	.st2{opacity:0.5;}
</style>
<g id="XMLID_530_">
	<g id="XMLID_531_">
		<path id="XMLID_50_" d="M107.3,10c53.7,0,97.3,43.7,97.3,97.3s-43.7,97.3-97.3,97.3C53.7,204.7,10,161,10,107.3S53.7,10,107.3,10
			 M107.3,0C48.1,0,0,48.1,0,107.3s48.1,107.3,107.3,107.3c59.3,0,107.3-48.1,107.3-107.3S166.6,0,107.3,0L107.3,0z"/>
	</g>
</g>
<g id="XMLID_409_">
	<g id="XMLID_516_">
		<g id="XMLID_526_">
			<circle id="XMLID_33_" class="st0" cx="161.1" cy="107.3" r="27.9"/>
			<circle id="XMLID_32_" class="st1" cx="161.1" cy="107.3" r="27.9"/>
		</g>
		<g id="XMLID_517_">
			<path id="XMLID_525_" class="st1" d="M150.9,118.4l8.7,2.3c4.2,1.1,8.4-0.7,9.4-4.5c1-3.8-1.6-7.4-5.8-8.6l-7.3-2
				c0,0,5.9,1.6,5.9,1.6c4.2,1.1,8.3-0.7,9.3-4.5c1-3.8-1.7-7.4-5.9-8.6l-7.3-2L150.9,118.4z"/>
			<g id="XMLID_518_">
				<g id="XMLID_522_">
					<line id="XMLID_524_" class="st1" x1="169.7" y1="90.7" x2="168.8" y2="93.9"/>
					<line id="XMLID_523_" class="st1" x1="160.3" y1="125.8" x2="161.2" y2="122.5"/>
				</g>
				<g id="XMLID_519_">
					<line id="XMLID_521_" class="st1" x1="163.2" y1="88.9" x2="162.3" y2="92.2"/>
					<line id="XMLID_520_" class="st1" x1="153.8" y1="124" x2="154.6" y2="120.7"/>
				</g>
			</g>
		</g>
	</g>
	<g id="XMLID_498_">
		<g id="XMLID_508_">
			<g id="XMLID_93_" class="st2">
				<circle id="XMLID_95_" cx="112.3" cy="161.1" r="27.9"/>
				<circle id="XMLID_94_" class="st1" cx="112.3" cy="161.1" r="27.9"/>
			</g>
			<g id="XMLID_90_">
				<circle id="XMLID_92_" class="st0" cx="107.3" cy="161.1" r="27.9"/>
				<circle id="XMLID_91_" class="st1" cx="107.3" cy="161.1" r="27.9"/>
			</g>
		</g>
		<g id="XMLID_499_">
			<path id="XMLID_507_" class="st1" d="M97.1,172.2l8.7,2.3c4.2,1.1,8.4-0.7,9.4-4.5c1-3.8-1.6-7.4-5.8-8.6l-7.3-2
				c0,0,5.9,1.6,5.9,1.6c4.2,1.1,8.3-0.7,9.3-4.5s-1.7-7.4-5.9-8.6l-7.3-2L97.1,172.2z"/>
			<g id="XMLID_500_">
				<g id="XMLID_504_">
					<line id="XMLID_506_" class="st1" x1="116" y1="144.4" x2="115.1" y2="147.7"/>
					<line id="XMLID_505_" class="st1" x1="106.6" y1="179.5" x2="107.4" y2="176.2"/>
				</g>
				<g id="XMLID_501_">
					<line id="XMLID_503_" class="st1" x1="109.4" y1="142.7" x2="108.6" y2="145.9"/>
					<line id="XMLID_502_" class="st1" x1="100" y1="177.8" x2="100.9" y2="174.5"/>
				</g>
			</g>
		</g>
	</g>
	<g id="XMLID_480_">
		<g id="XMLID_490_">
			<g id="XMLID_86_" class="st2">
				<circle id="XMLID_88_" cx="112.3" cy="53.6" r="27.9"/>
				<circle id="XMLID_87_" class="st1" cx="112.3" cy="53.6" r="27.9"/>
			</g>
			<g id="XMLID_83_">
				<circle id="XMLID_85_" class="st0" cx="107.3" cy="53.6" r="27.9"/>
				<circle id="XMLID_84_" class="st1" cx="107.3" cy="53.6" r="27.9"/>
			</g>
		</g>
		<g id="XMLID_481_">
			<path id="XMLID_489_" class="st1" d="M97.1,64.7l8.7,2.3c4.2,1.1,8.4-0.7,9.4-4.5c1-3.8-1.6-7.4-5.8-8.6l-7.3-2
				c0,0,5.9,1.6,5.9,1.6c4.2,1.1,8.3-0.7,9.3-4.5c1-3.8-1.7-7.4-5.9-8.6l-7.3-2L97.1,64.7z"/>
			<g id="XMLID_482_">
				<g id="XMLID_486_">
					<line id="XMLID_488_" class="st1" x1="116" y1="36.9" x2="115.1" y2="40.2"/>
					<line id="XMLID_487_" class="st1" x1="106.6" y1="72" x2="107.4" y2="68.7"/>
				</g>
				<g id="XMLID_483_">
					<line id="XMLID_485_" class="st1" x1="109.4" y1="35.2" x2="108.6" y2="38.4"/>
					<line id="XMLID_484_" class="st1" x1="100" y1="70.3" x2="100.9" y2="67"/>
				</g>
			</g>
		</g>
	</g>
	<g id="XMLID_462_">
		<g id="XMLID_472_">
			<g id="XMLID_79_" class="st2">
				<circle id="XMLID_81_" cx="58.6" cy="107.3" r="27.9"/>
				<circle id="XMLID_80_" class="st1" cx="58.6" cy="107.3" r="27.9"/>
			</g>
			<g id="XMLID_76_">
				<circle id="XMLID_78_" class="st0" cx="53.6" cy="107.3" r="27.9"/>
				<circle id="XMLID_77_" class="st1" cx="53.6" cy="107.3" r="27.9"/>
			</g>
		</g>
		<g id="XMLID_463_">
			<path id="XMLID_471_" class="st1" d="M43.4,118.4l8.7,2.3c4.2,1.1,8.4-0.7,9.4-4.5c1-3.8-1.6-7.4-5.8-8.6l-7.3-2
				c0,0,5.9,1.6,5.9,1.6c4.2,1.1,8.3-0.7,9.3-4.5c1-3.8-1.7-7.4-5.9-8.6l-7.3-2L43.4,118.4z"/>
			<g id="XMLID_464_">
				<g id="XMLID_468_">
					<line id="XMLID_470_" class="st1" x1="62.2" y1="90.7" x2="61.3" y2="93.9"/>
					<line id="XMLID_469_" class="st1" x1="52.8" y1="125.8" x2="53.7" y2="122.5"/>
				</g>
				<g id="XMLID_465_">
					<line id="XMLID_467_" class="st1" x1="55.7" y1="88.9" x2="54.8" y2="92.2"/>
					<line id="XMLID_466_" class="st1" x1="46.3" y1="124" x2="47.2" y2="120.7"/>
				</g>
			</g>
		</g>
	</g>
	<g id="XMLID_593_">
		<g id="XMLID_408_">
			<g id="XMLID_527_">
				<g id="XMLID_72_" class="st2">
					<circle id="XMLID_74_" cx="148.2" cy="147.6" r="27.9"/>
					<circle id="XMLID_73_" class="st1" cx="148.2" cy="147.6" r="27.9"/>
				</g>
				<g id="XMLID_69_">
					<circle id="XMLID_71_" class="st0" cx="143.2" cy="147.6" r="27.9"/>
					<circle id="XMLID_70_" class="st1" cx="143.2" cy="147.6" r="27.9"/>
				</g>
			</g>
			<g id="XMLID_455_">
				<path id="XMLID_515_" class="st1" d="M133,158.7l8.7,2.3c4.2,1.1,8.4-0.7,9.4-4.5c1-3.8-1.6-7.4-5.8-8.6l-7.3-2
					c0,0,5.9,1.6,5.9,1.6c4.2,1.1,8.3-0.7,9.3-4.5c1-3.8-1.7-7.4-5.9-8.6l-7.3-2L133,158.7z"/>
				<g id="XMLID_456_">
					<g id="XMLID_476_">
						<line id="XMLID_478_" class="st1" x1="151.8" y1="131" x2="150.9" y2="134.2"/>
						<line id="XMLID_477_" class="st1" x1="142.4" y1="166.1" x2="143.3" y2="162.8"/>
					</g>
					<g id="XMLID_457_">
						<line id="XMLID_459_" class="st1" x1="145.3" y1="129.2" x2="144.4" y2="132.5"/>
						<line id="XMLID_458_" class="st1" x1="135.9" y1="164.3" x2="136.7" y2="161.1"/>
					</g>
				</g>
			</g>
		</g>
		<g id="XMLID_528_">
			<g id="XMLID_553_">
				<g id="XMLID_65_" class="st2">
					<circle id="XMLID_67_" cx="148.2" cy="67" r="27.9"/>
					<circle id="XMLID_66_" class="st1" cx="148.2" cy="67" r="27.9"/>
				</g>
				<g id="XMLID_62_">
					<circle id="XMLID_64_" class="st0" cx="143.2" cy="67" r="27.9"/>
					<circle id="XMLID_63_" class="st1" cx="143.2" cy="67" r="27.9"/>
				</g>
			</g>
			<g id="XMLID_537_">
				<path id="XMLID_552_" class="st1" d="M133,78.1l8.7,2.3c4.2,1.1,8.4-0.7,9.4-4.5c1-3.8-1.6-7.4-5.8-8.6l-7.3-2
					c0,0,5.9,1.6,5.9,1.6c4.2,1.1,8.3-0.7,9.3-4.5s-1.7-7.4-5.9-8.6l-7.3-2L133,78.1z"/>
				<g id="XMLID_544_">
					<g id="XMLID_548_">
						<line id="XMLID_550_" class="st1" x1="151.8" y1="50.4" x2="150.9" y2="53.6"/>
						<line id="XMLID_549_" class="st1" x1="142.4" y1="85.4" x2="143.3" y2="82.2"/>
					</g>
					<g id="XMLID_545_">
						<line id="XMLID_547_" class="st1" x1="145.3" y1="48.6" x2="144.4" y2="51.9"/>
						<line id="XMLID_546_" class="st1" x1="135.9" y1="83.7" x2="136.7" y2="80.4"/>
					</g>
				</g>
			</g>
		</g>
		<g id="XMLID_566_">
			<g id="XMLID_592_">
				<g id="XMLID_58_" class="st2">
					<circle id="XMLID_60_" cx="76.5" cy="147.6" r="27.9"/>
					<circle id="XMLID_59_" class="st1" cx="76.5" cy="147.6" r="27.9"/>
				</g>
				<g id="XMLID_55_">
					<circle id="XMLID_57_" class="st0" cx="71.5" cy="147.6" r="27.9"/>
					<circle id="XMLID_56_" class="st1" cx="71.5" cy="147.6" r="27.9"/>
				</g>
			</g>
			<g id="XMLID_567_">
				<path id="XMLID_591_" class="st1" d="M61.3,158.7l8.7,2.3c4.2,1.1,8.4-0.7,9.4-4.5c1-3.8-1.6-7.4-5.8-8.6l-7.3-2
					c0,0,5.9,1.6,5.9,1.6c4.2,1.1,8.3-0.7,9.3-4.5c1-3.8-1.7-7.4-5.9-8.6l-7.3-2L61.3,158.7z"/>
				<g id="XMLID_584_">
					<g id="XMLID_588_">
						<line id="XMLID_590_" class="st1" x1="80.1" y1="131" x2="79.3" y2="134.2"/>
						<line id="XMLID_589_" class="st1" x1="70.7" y1="166.1" x2="71.6" y2="162.8"/>
					</g>
					<g id="XMLID_585_">
						<line id="XMLID_587_" class="st1" x1="73.6" y1="129.2" x2="72.7" y2="132.5"/>
						<line id="XMLID_586_" class="st1" x1="64.2" y1="164.3" x2="65.1" y2="161.1"/>
					</g>
				</g>
			</g>
		</g>
		<g id="XMLID_551_">
			<g id="XMLID_565_">
				<g id="XMLID_68_" class="st2">
					<circle id="XMLID_89_" cx="76.5" cy="67" r="27.9"/>
					<circle id="XMLID_75_" class="st1" cx="76.5" cy="67" r="27.9"/>
				</g>
				<g id="XMLID_52_">
					<circle id="XMLID_54_" class="st0" cx="71.5" cy="67" r="27.9"/>
					<circle id="XMLID_53_" class="st1" cx="71.5" cy="67" r="27.9"/>
				</g>
			</g>
			<g id="XMLID_554_">
				<path id="XMLID_564_" class="st1" d="M61.3,78.1l8.7,2.3c4.2,1.1,8.4-0.7,9.4-4.5c1-3.8-1.6-7.4-5.8-8.6l-7.3-2
					c0,0,5.9,1.6,5.9,1.6c4.2,1.1,8.3-0.7,9.3-4.5s-1.7-7.4-5.9-8.6l-7.3-2L61.3,78.1z"/>
				<g id="XMLID_555_">
					<g id="XMLID_559_">
						<line id="XMLID_561_" class="st1" x1="80.1" y1="50.4" x2="79.3" y2="53.6"/>
						<line id="XMLID_560_" class="st1" x1="70.7" y1="85.4" x2="71.6" y2="82.2"/>
					</g>
					<g id="XMLID_556_">
						<line id="XMLID_558_" class="st1" x1="73.6" y1="48.6" x2="72.7" y2="51.9"/>
						<line id="XMLID_557_" class="st1" x1="64.2" y1="83.7" x2="65.1" y2="80.4"/>
					</g>
				</g>
			</g>
		</g>
	</g>
	<g id="XMLID_434_">
		<g id="XMLID_448_">
			<g id="XMLID_100_" class="st2">
				<circle id="XMLID_102_" cx="112.3" cy="107.3" r="27.9"/>
				<circle id="XMLID_101_" class="st1" cx="112.3" cy="107.3" r="27.9"/>
			</g>
			<g id="XMLID_96_">
				<circle id="XMLID_99_" class="st0" cx="107.3" cy="107.3" r="27.9"/>
				<circle id="XMLID_97_" class="st1" cx="107.3" cy="107.3" r="27.9"/>
			</g>
		</g>
		<g id="XMLID_435_">
			<path id="XMLID_447_" class="st1" d="M97.1,118.4l8.7,2.3c4.2,1.1,8.4-0.7,9.4-4.5c1-3.8-1.6-7.4-5.8-8.6l-7.3-2
				c0,0,5.9,1.6,5.9,1.6c4.2,1.1,8.3-0.7,9.3-4.5c1-3.8-1.7-7.4-5.9-8.6l-7.3-2L97.1,118.4z"/>
			<g id="XMLID_439_">
				<g id="XMLID_443_">
					<line id="XMLID_446_" class="st1" x1="116" y1="90.7" x2="115.1" y2="93.9"/>
					<line id="XMLID_445_" class="st1" x1="106.6" y1="125.8" x2="107.4" y2="122.5"/>
				</g>
				<g id="XMLID_440_">
					<line id="XMLID_442_" class="st1" x1="109.4" y1="88.9" x2="108.6" y2="92.2"/>
					<line id="XMLID_441_" class="st1" x1="100" y1="124" x2="100.9" y2="120.7"/>
				</g>
			</g>
		</g>
	</g>
</g>
</svg>
