<?xml version="1.0" encoding="utf-8"?>
<!-- Generator: Adobe Illustrator 19.0.0, SVG Export Plug-In . SVG Version: 6.00 Build 0)  -->
<svg version="1.1" id="Layer_1" xmlns="http://www.w3.org/2000/svg" xmlns:xlink="http://www.w3.org/1999/xlink" x="0px" y="0px"
	 viewBox="0 0 214.7 214.7" style="enable-background:new 0 0 214.7 214.7;" xml:space="preserve">
<style type="text/css">
	.st0{fill:#FF9900;}
	.st1{fill:none;stroke:#000000;stroke-width:5;stroke-linecap:round;stroke-linejoin:round;stroke-miterlimit:10;}
</style>
<g id="XMLID_461_">
	<g id="XMLID_473_">
		<path id="XMLID_84_" d="M107.3,10c53.7,0,97.3,43.7,97.3,97.3s-43.7,97.3-97.3,97.3C53.7,204.7,10,161,10,107.3S53.7,10,107.3,10
			 M107.3,0C48.1,0,0,48.1,0,107.3s48.1,107.3,107.3,107.3c59.3,0,107.3-48.1,107.3-107.3S166.6,0,107.3,0L107.3,0z"/>
	</g>
</g>
<g id="XMLID_634_">
	<g id="XMLID_712_">
		<path id="XMLID_77_" class="st0" d="M133.1,155c16.9,7,19,19.3,4.8,27.3s-39.4,8.9-56.3,1.9s-19-19.3-4.8-27.3
			S116.2,148,133.1,155z"/>
		<path id="XMLID_76_" class="st1" d="M133.1,155c16.9,7,19,19.3,4.8,27.3s-39.4,8.9-56.3,1.9s-19-19.3-4.8-27.3
			S116.2,148,133.1,155z"/>
	</g>
	<g id="XMLID_711_">
		<path id="XMLID_74_" class="st0" d="M133.1,146.1c16.9,7,19,19.3,4.8,27.3c-14.2,8.1-39.4,8.9-56.3,1.9c-16.9-7-19-19.3-4.8-27.3
			S116.2,139.1,133.1,146.1z"/>
		<path id="XMLID_73_" class="st1" d="M133.1,146.1c16.9,7,19,19.3,4.8,27.3c-14.2,8.1-39.4,8.9-56.3,1.9c-16.9-7-19-19.3-4.8-27.3
			S116.2,139.1,133.1,146.1z"/>
	</g>
	<g id="XMLID_710_">
		<path id="XMLID_71_" class="st0" d="M133.1,137.2c16.9,7,19,19.3,4.8,27.3s-39.4,8.9-56.3,1.9c-16.9-7-19-19.3-4.8-27.3
			S116.2,130.2,133.1,137.2z"/>
		<path id="XMLID_70_" class="st1" d="M133.1,137.2c16.9,7,19,19.3,4.8,27.3s-39.4,8.9-56.3,1.9c-16.9-7-19-19.3-4.8-27.3
			S116.2,130.2,133.1,137.2z"/>
	</g>
	<g id="XMLID_709_">
		<path id="XMLID_68_" class="st0" d="M133.1,128.3c16.9,7,19,19.3,4.8,27.3s-39.4,8.9-56.3,1.9s-19-19.3-4.8-27.3
			S116.2,121.3,133.1,128.3z"/>
		<path id="XMLID_67_" class="st1" d="M133.1,128.3c16.9,7,19,19.3,4.8,27.3s-39.4,8.9-56.3,1.9s-19-19.3-4.8-27.3
			S116.2,121.3,133.1,128.3z"/>
	</g>
	<g id="XMLID_708_">
		<path id="XMLID_65_" class="st0" d="M133.1,119.4c16.9,7,19,19.3,4.8,27.3s-39.4,8.9-56.3,1.9s-19-19.3-4.8-27.3
			S116.2,112.4,133.1,119.4z"/>
		<path id="XMLID_64_" class="st1" d="M133.1,119.4c16.9,7,19,19.3,4.8,27.3s-39.4,8.9-56.3,1.9s-19-19.3-4.8-27.3
			S116.2,112.4,133.1,119.4z"/>
	</g>
	<g id="XMLID_707_">
		<path id="XMLID_62_" class="st0" d="M133.1,110.5c16.9,7,19,19.3,4.8,27.3s-39.4,8.9-56.3,1.9s-19-19.3-4.8-27.3
			S116.2,103.5,133.1,110.5z"/>
		<path id="XMLID_61_" class="st1" d="M133.1,110.5c16.9,7,19,19.3,4.8,27.3s-39.4,8.9-56.3,1.9s-19-19.3-4.8-27.3
			S116.2,103.5,133.1,110.5z"/>
	</g>
	<g id="XMLID_706_">
		<path id="XMLID_59_" class="st0" d="M133.1,101.6c16.9,7,19,19.3,4.8,27.3s-39.4,8.9-56.3,1.9c-16.9-7-19-19.3-4.8-27.3
			S116.2,94.6,133.1,101.6z"/>
		<path id="XMLID_58_" class="st1" d="M133.1,101.6c16.9,7,19,19.3,4.8,27.3s-39.4,8.9-56.3,1.9c-16.9-7-19-19.3-4.8-27.3
			S116.2,94.6,133.1,101.6z"/>
	</g>
	<g id="XMLID_705_">
		<path id="XMLID_56_" class="st0" d="M133.1,92.7c16.9,7,19,19.3,4.8,27.3s-39.4,8.9-56.3,1.9c-16.9-7-19-19.3-4.8-27.3
			S116.2,85.7,133.1,92.7z"/>
		<path id="XMLID_55_" class="st1" d="M133.1,92.7c16.9,7,19,19.3,4.8,27.3s-39.4,8.9-56.3,1.9c-16.9-7-19-19.3-4.8-27.3
			S116.2,85.7,133.1,92.7z"/>
	</g>
	<g id="XMLID_704_">
		<path id="XMLID_53_" class="st0" d="M133.1,83.8c16.9,7,19,19.3,4.8,27.3s-39.4,8.9-56.3,1.9c-16.9-7-19-19.3-4.8-27.3
			S116.2,76.8,133.1,83.8z"/>
		<path id="XMLID_52_" class="st1" d="M133.1,83.8c16.9,7,19,19.3,4.8,27.3s-39.4,8.9-56.3,1.9c-16.9-7-19-19.3-4.8-27.3
			S116.2,76.8,133.1,83.8z"/>
	</g>
	<g id="XMLID_703_">
		<path id="XMLID_50_" class="st0" d="M133.1,74.9c16.9,7,19,19.3,4.8,27.3s-39.4,8.9-56.3,1.9c-16.9-7-19-19.3-4.8-27.3
			S116.2,67.9,133.1,74.9z"/>
		<path id="XMLID_49_" class="st1" d="M133.1,74.9c16.9,7,19,19.3,4.8,27.3s-39.4,8.9-56.3,1.9c-16.9-7-19-19.3-4.8-27.3
			S116.2,67.9,133.1,74.9z"/>
	</g>
	<g id="XMLID_702_">
		<path id="XMLID_47_" class="st0" d="M133.1,66c16.9,7,19,19.3,4.8,27.3s-39.4,8.9-56.3,1.9s-19-19.3-4.8-27.3S116.2,59,133.1,66z"
			/>
		<path id="XMLID_46_" class="st1" d="M133.1,66c16.9,7,19,19.3,4.8,27.3s-39.4,8.9-56.3,1.9s-19-19.3-4.8-27.3S116.2,59,133.1,66z"
			/>
	</g>
	<g id="XMLID_701_">
		<path id="XMLID_42_" class="st0" d="M133.1,57.1c16.9,7,19,19.3,4.8,27.3s-39.4,8.9-56.3,1.9c-16.9-7-19-19.3-4.8-27.3
			S116.2,50.1,133.1,57.1z"/>
		<path id="XMLID_41_" class="st1" d="M133.1,57.1c16.9,7,19,19.3,4.8,27.3s-39.4,8.9-56.3,1.9c-16.9-7-19-19.3-4.8-27.3
			S116.2,50.1,133.1,57.1z"/>
	</g>
	<g id="XMLID_700_">
		<path id="XMLID_39_" class="st0" d="M133.1,48.2c16.9,7,19,19.3,4.8,27.3s-39.4,8.9-56.3,1.9c-16.9-7-19-19.3-4.8-27.3
			S116.2,41.2,133.1,48.2z"/>
		<path id="XMLID_38_" class="st1" d="M133.1,48.2c16.9,7,19,19.3,4.8,27.3s-39.4,8.9-56.3,1.9c-16.9-7-19-19.3-4.8-27.3
			S116.2,41.2,133.1,48.2z"/>
	</g>
	<g id="XMLID_699_">
		<path id="XMLID_36_" class="st0" d="M133.1,39.3c16.9,7,19,19.3,4.8,27.3s-39.4,8.9-56.3,1.9s-19-19.3-4.8-27.3
			S116.2,32.3,133.1,39.3z"/>
		<path id="XMLID_35_" class="st1" d="M133.1,39.3c16.9,7,19,19.3,4.8,27.3s-39.4,8.9-56.3,1.9s-19-19.3-4.8-27.3
			S116.2,32.3,133.1,39.3z"/>
	</g>
	<g id="XMLID_635_">
		<g id="XMLID_698_">
			<path id="XMLID_33_" class="st0" d="M133.1,30.4c16.9,7,19,19.3,4.8,27.3s-39.4,8.9-56.3,1.9s-19-19.3-4.8-27.3
				S116.2,23.4,133.1,30.4z"/>
			<path id="XMLID_32_" class="st1" d="M133.1,30.4c16.9,7,19,19.3,4.8,27.3s-39.4,8.9-56.3,1.9s-19-19.3-4.8-27.3
				S116.2,23.4,133.1,30.4z"/>
		</g>
		<g id="XMLID_636_">
			<path id="XMLID_697_" class="st1" d="M110.1,55.4l10.6-3.5c5.1-1.7,6.9-4.7,3.7-7c-3.2-2.2-9.6-2.5-14.7-0.9l-8.9,2.9
				c0,0,7.1-2.4,7.1-2.4c5.1-1.7,6.9-4.7,3.7-6.9c-3.2-2.2-9.7-2.5-14.8-0.8l-8.9,2.9L110.1,55.4z"/>
			<g id="XMLID_637_">
				<g id="XMLID_694_">
					<line id="XMLID_696_" class="st1" x1="97" y1="32.9" x2="99.8" y2="34.9"/>
					<line id="XMLID_695_" class="st1" x1="126.8" y1="53.9" x2="124" y2="51.9"/>
				</g>
				<g id="XMLID_638_">
					<line id="XMLID_693_" class="st1" x1="89.1" y1="35.5" x2="91.9" y2="37.5"/>
					<line id="XMLID_692_" class="st1" x1="118.8" y1="56.5" x2="116.1" y2="54.5"/>
				</g>
			</g>
		</g>
	</g>
</g>
</svg>
