<?xml version="1.0" encoding="utf-8"?>
<!-- Generator: Adobe Illustrator 19.0.0, SVG Export Plug-In . SVG Version: 6.00 Build 0)  -->
<svg version="1.1" id="Layer_1" xmlns="http://www.w3.org/2000/svg" xmlns:xlink="http://www.w3.org/1999/xlink" x="0px" y="0px"
	 viewBox="0 0 214.7 214.7" style="enable-background:new 0 0 214.7 214.7;" xml:space="preserve">
<style type="text/css">
	.st0{fill:#00CFFF;}
	.st1{fill:none;stroke:#000000;stroke-width:10;stroke-linecap:round;stroke-linejoin:round;stroke-miterlimit:10;}
</style>
<g id="XMLID_747_">
	<path id="XMLID_737_" class="st0" d="M12.5,147.5c0,0,34,69,101.5,61S216.5,153,209,84l-18.8,5.6L177,95l-29,36l-29.4-11L86,150.4
		L60,120L12.5,147.5z"/>
	<g id="XMLID_50_">
		<g id="XMLID_52_">
			<path id="XMLID_37_" d="M107.3,10c53.7,0,97.3,43.7,97.3,97.3s-43.7,97.3-97.3,97.3C53.7,204.7,10,161,10,107.3S53.7,10,107.3,10
				 M107.3,0C48.1,0,0,48.1,0,107.3s48.1,107.3,107.3,107.3c59.3,0,107.3-48.1,107.3-107.3S166.6,0,107.3,0L107.3,0z"/>
		</g>
	</g>
	<polyline id="XMLID_53_" class="st1" points="203.7,84 177,95 148,131 118.6,120 86,150.4 60,120 16.5,145.9 	"/>
	<polyline id="XMLID_46_" class="st1" points="186.5,79.4 201.4,85.8 195.4,99.7 	"/>
</g>
</svg>
