<?xml version="1.0" encoding="utf-8"?>
<!-- Generator: Adobe Illustrator 19.0.0, SVG Export Plug-In . SVG Version: 6.00 Build 0)  -->
<svg version="1.1" id="Layer_1" xmlns="http://www.w3.org/2000/svg" xmlns:xlink="http://www.w3.org/1999/xlink" x="0px" y="0px"
	 viewBox="0 0 214.7 214.7" style="enable-background:new 0 0 214.7 214.7;" xml:space="preserve">
<style type="text/css">
	.st0{fill:#0062FF;}
	.st1{fill:none;stroke:#000000;stroke-width:10;stroke-linecap:round;stroke-linejoin:round;stroke-miterlimit:10;}
</style>
<g id="XMLID_776_">
	<path id="XMLID_62_" class="st0" d="M187,40.7c0,0,72,88.3-36.5,160.8c0,0-87,40.5-136.5-49l29.3-29.8l34.1,4.3l42.7-32l37.3-15
		L182,38L187,40.7z"/>
	<g id="XMLID_606_">
		<g id="XMLID_736_">
			<path id="XMLID_37_" d="M107.3,10c53.7,0,97.3,43.7,97.3,97.3s-43.7,97.3-97.3,97.3C53.7,204.7,10,161,10,107.3S53.7,10,107.3,10
				 M107.3,0C48.1,0,0,48.1,0,107.3s48.1,107.3,107.3,107.3c59.3,0,107.3-48.1,107.3-107.3S166.6,0,107.3,0L107.3,0z"/>
		</g>
	</g>
	<polyline id="XMLID_604_" class="st1" points="16.7,150.4 43.3,122.7 80.2,127.3 120.2,95 157.5,80 182,40.7 	"/>
	<polyline id="XMLID_767_" class="st1" points="164.5,47.5 180.3,43.9 183.6,58.7 	"/>
</g>
</svg>
