<?xml version="1.0" encoding="utf-8"?>
<!-- Generator: Adobe Illustrator 19.0.0, SVG Export Plug-In . SVG Version: 6.00 Build 0)  -->
<svg version="1.1" id="Layer_1" xmlns="http://www.w3.org/2000/svg" xmlns:xlink="http://www.w3.org/1999/xlink" x="0px" y="0px"
	 viewBox="0 0 214.7 214.7" style="enable-background:new 0 0 214.7 214.7;" xml:space="preserve">
<style type="text/css">
	.st0{fill:#0A119E;}
	.st1{fill:none;stroke:#000000;stroke-width:10;stroke-linecap:round;stroke-linejoin:round;stroke-miterlimit:10;}
</style>
<g id="XMLID_780_">
	<path id="XMLID_775_" class="st0" d="M182.3,38c0,0,38,37.7,23,93.7s-52.7,81-111.2,77.3c0,0-51.8-3.2-71.2-45.4l43-68.4l12,12.2
		L118.7,65l20.7,7.7l27.3-48L182.3,38z"/>
	<g id="XMLID_768_">
		<g id="XMLID_771_">
			<path id="XMLID_37_" d="M107.3,10c53.7,0,97.3,43.7,97.3,97.3s-43.7,97.3-97.3,97.3C53.7,204.7,10,161,10,107.3S53.7,10,107.3,10
				 M107.3,0C48.1,0,0,48.1,0,107.3s48.1,107.3,107.3,107.3c59.3,0,107.3-48.1,107.3-107.3S166.6,0,107.3,0L107.3,0z"/>
		</g>
	</g>
	<polyline id="XMLID_774_" class="st1" points="148.4,33.5 163.9,28.7 168.4,43.1 	"/>
	<polyline id="XMLID_772_" class="st1" points="23,163.6 65,97.3 79.3,107.3 118.7,65 139.3,72.7 166.7,24.7 	"/>
</g>
</svg>
